<?xml version="1.0" encoding="UTF-8" standalone="no"?><svg xmlns="http://www.w3.org/2000/svg" xmlns:xlink="http://www.w3.org/1999/xlink" contentScriptType="application/ecmascript" contentStyleType="text/css" height="520px" preserveAspectRatio="none" style="width:642px;height:520px;" version="1.1" viewBox="0 0 642 520" width="642px" zoomAndPan="magnify"><defs><filter height="300%" id="f1vbppv0igq280" width="300%" x="-1" y="-1"><feGaussianBlur result="blurOut" stdDeviation="2.0"/><feColorMatrix in="blurOut" result="blurOut2" type="matrix" values="0 0 0 0 0 0 0 0 0 0 0 0 0 0 0 0 0 0 .4 0"/><feOffset dx="4.0" dy="4.0" in="blurOut2" result="blurOut3"/><feBlend in="SourceGraphic" in2="blurOut3" mode="normal"/></filter></defs><g><text fill="#000000" font-family="sans-serif" font-size="18" lengthAdjust="spacingAndGlyphs" textLength="148" x="251" y="17.4023">ArrayList继承关系</text><!--class Iterable--><rect fill="#FEFECE" filter="url(#f1vbppv0igq280)" height="48" id="Iterable" style="stroke: #A80036; stroke-width: 1.5;" width="76" x="99.5" y="29.1992"/><ellipse cx="114.5" cy="45.1992" fill="#B4A7E5" rx="11" ry="11" style="stroke: #A80036; stroke-width: 1.0;"/><path d="M110.4277,40.9644 L110.4277,38.8062 L117.8071,38.8062 L117.8071,40.9644 L115.3418,40.9644 L115.3418,49.041 L117.8071,49.041 L117.8071,51.1992 L110.4277,51.1992 L110.4277,49.041 L112.8931,49.041 L112.8931,40.9644 Z "/><text fill="#000000" font-family="sans-serif" font-size="12" font-style="italic" lengthAdjust="spacingAndGlyphs" textLength="44" x="128.5" y="49.7344">Iterable</text><line style="stroke: #A80036; stroke-width: 1.5;" x1="100.5" x2="174.5" y1="61.1992" y2="61.1992"/><line style="stroke: #A80036; stroke-width: 1.5;" x1="100.5" x2="174.5" y1="69.1992" y2="69.1992"/><!--class Collection--><rect fill="#FEFECE" filter="url(#f1vbppv0igq280)" height="48" id="Collection" style="stroke: #A80036; stroke-width: 1.5;" width="87" x="94" y="137.1992"/><ellipse cx="109" cy="153.1992" fill="#B4A7E5" rx="11" ry="11" style="stroke: #A80036; stroke-width: 1.0;"/><path d="M104.9277,148.9644 L104.9277,146.8062 L112.3071,146.8062 L112.3071,148.9644 L109.8418,148.9644 L109.8418,157.041 L112.3071,157.041 L112.3071,159.1992 L104.9277,159.1992 L104.9277,157.041 L107.3931,157.041 L107.3931,148.9644 Z "/><text fill="#000000" font-family="sans-serif" font-size="12" font-style="italic" lengthAdjust="spacingAndGlyphs" textLength="55" x="123" y="157.7344">Collection</text><line style="stroke: #A80036; stroke-width: 1.5;" x1="95" x2="180" y1="169.1992" y2="169.1992"/><line style="stroke: #A80036; stroke-width: 1.5;" x1="95" x2="180" y1="177.1992" y2="177.1992"/><!--class List--><rect fill="#FEFECE" filter="url(#f1vbppv0igq280)" height="48" id="List" style="stroke: #A80036; stroke-width: 1.5;" width="51" x="176" y="245.1992"/><ellipse cx="191" cy="261.1992" fill="#B4A7E5" rx="11" ry="11" style="stroke: #A80036; stroke-width: 1.0;"/><path d="M186.9277,256.9644 L186.9277,254.8062 L194.3071,254.8062 L194.3071,256.9644 L191.8418,256.9644 L191.8418,265.041 L194.3071,265.041 L194.3071,267.1992 L186.9277,267.1992 L186.9277,265.041 L189.3931,265.041 L189.3931,256.9644 Z "/><text fill="#000000" font-family="sans-serif" font-size="12" font-style="italic" lengthAdjust="spacingAndGlyphs" textLength="19" x="205" y="265.7344">List</text><line style="stroke: #A80036; stroke-width: 1.5;" x1="177" x2="226" y1="277.1992" y2="277.1992"/><line style="stroke: #A80036; stroke-width: 1.5;" x1="177" x2="226" y1="285.1992" y2="285.1992"/><!--class RandomAccess--><rect fill="#FEFECE" filter="url(#f1vbppv0igq280)" height="48" id="RandomAccess" style="stroke: #A80036; stroke-width: 1.5;" width="119" x="255" y="353.1992"/><ellipse cx="270" cy="369.1992" fill="#B4A7E5" rx="11" ry="11" style="stroke: #A80036; stroke-width: 1.0;"/><path d="M265.9277,364.9644 L265.9277,362.8062 L273.3071,362.8062 L273.3071,364.9644 L270.8418,364.9644 L270.8418,373.041 L273.3071,373.041 L273.3071,375.1992 L265.9277,375.1992 L265.9277,373.041 L268.3931,373.041 L268.3931,364.9644 Z "/><text fill="#000000" font-family="sans-serif" font-size="12" font-style="italic" lengthAdjust="spacingAndGlyphs" textLength="87" x="284" y="373.7344">RandomAccess</text><line style="stroke: #A80036; stroke-width: 1.5;" x1="256" x2="373" y1="385.1992" y2="385.1992"/><line style="stroke: #A80036; stroke-width: 1.5;" x1="256" x2="373" y1="393.1992" y2="393.1992"/><!--class Cloneable--><rect fill="#FEFECE" filter="url(#f1vbppv0igq280)" height="48" id="Cloneable" style="stroke: #A80036; stroke-width: 1.5;" width="89" x="409" y="353.1992"/><ellipse cx="424" cy="369.1992" fill="#B4A7E5" rx="11" ry="11" style="stroke: #A80036; stroke-width: 1.0;"/><path d="M419.9277,364.9644 L419.9277,362.8062 L427.3071,362.8062 L427.3071,364.9644 L424.8418,364.9644 L424.8418,373.041 L427.3071,373.041 L427.3071,375.1992 L419.9277,375.1992 L419.9277,373.041 L422.3931,373.041 L422.3931,364.9644 Z "/><text fill="#000000" font-family="sans-serif" font-size="12" font-style="italic" lengthAdjust="spacingAndGlyphs" textLength="57" x="438" y="373.7344">Cloneable</text><line style="stroke: #A80036; stroke-width: 1.5;" x1="410" x2="497" y1="385.1992" y2="385.1992"/><line style="stroke: #A80036; stroke-width: 1.5;" x1="410" x2="497" y1="393.1992" y2="393.1992"/><!--class Serializable--><rect fill="#FEFECE" filter="url(#f1vbppv0igq280)" height="48" id="Serializable" style="stroke: #A80036; stroke-width: 1.5;" width="98" x="533.5" y="353.1992"/><ellipse cx="548.5" cy="369.1992" fill="#B4A7E5" rx="11" ry="11" style="stroke: #A80036; stroke-width: 1.0;"/><path d="M544.4277,364.9644 L544.4277,362.8062 L551.8071,362.8062 L551.8071,364.9644 L549.3418,364.9644 L549.3418,373.041 L551.8071,373.041 L551.8071,375.1992 L544.4277,375.1992 L544.4277,373.041 L546.8931,373.041 L546.8931,364.9644 Z "/><text fill="#000000" font-family="sans-serif" font-size="12" font-style="italic" lengthAdjust="spacingAndGlyphs" textLength="66" x="562.5" y="373.7344">Serializable</text><line style="stroke: #A80036; stroke-width: 1.5;" x1="534.5" x2="630.5" y1="385.1992" y2="385.1992"/><line style="stroke: #A80036; stroke-width: 1.5;" x1="534.5" x2="630.5" y1="393.1992" y2="393.1992"/><!--class AbstractCollection--><rect fill="#FEFECE" filter="url(#f1vbppv0igq280)" height="48" id="AbstractCollection" style="stroke: #A80036; stroke-width: 1.5;" width="135" x="6" y="245.1992"/><ellipse cx="21" cy="261.1992" fill="#A9DCDF" rx="11" ry="11" style="stroke: #A80036; stroke-width: 1.0;"/><path d="M21.1133,256.5474 L19.9595,261.6191 L22.2754,261.6191 Z M19.6191,254.3062 L22.6157,254.3062 L25.9609,266.6992 L23.5122,266.6992 L22.7485,263.6362 L19.4697,263.6362 L18.7227,266.6992 L16.2739,266.6992 Z "/><text fill="#000000" font-family="sans-serif" font-size="12" font-style="italic" lengthAdjust="spacingAndGlyphs" textLength="103" x="35" y="265.7344">AbstractCollection</text><line style="stroke: #A80036; stroke-width: 1.5;" x1="7" x2="140" y1="277.1992" y2="277.1992"/><line style="stroke: #A80036; stroke-width: 1.5;" x1="7" x2="140" y1="285.1992" y2="285.1992"/><!--class AbstractList--><rect fill="#FEFECE" filter="url(#f1vbppv0igq280)" height="48" id="AbstractList" style="stroke: #A80036; stroke-width: 1.5;" width="99" x="49" y="353.1992"/><ellipse cx="64" cy="369.1992" fill="#A9DCDF" rx="11" ry="11" style="stroke: #A80036; stroke-width: 1.0;"/><path d="M64.1133,364.5474 L62.9595,369.6191 L65.2754,369.6191 Z M62.6191,362.3062 L65.6157,362.3062 L68.9609,374.6992 L66.5122,374.6992 L65.7485,371.6362 L62.4697,371.6362 L61.7227,374.6992 L59.2739,374.6992 Z "/><text fill="#000000" font-family="sans-serif" font-size="12" font-style="italic" lengthAdjust="spacingAndGlyphs" textLength="67" x="78" y="373.7344">AbstractList</text><line style="stroke: #A80036; stroke-width: 1.5;" x1="50" x2="147" y1="385.1992" y2="385.1992"/><line style="stroke: #A80036; stroke-width: 1.5;" x1="50" x2="147" y1="393.1992" y2="393.1992"/><!--class ArrayList--><rect fill="#FEFECE" filter="url(#f1vbppv0igq280)" height="48" id="ArrayList" style="stroke: #A80036; stroke-width: 1.5;" width="82" x="273.5" y="461.1992"/><ellipse cx="288.5" cy="477.1992" fill="#ADD1B2" rx="11" ry="11" style="stroke: #A80036; stroke-width: 1.0;"/><path d="M291.4731,482.8423 Q290.8921,483.1411 290.2529,483.2905 Q289.6138,483.4399 288.9082,483.4399 Q286.4014,483.4399 285.0815,481.7881 Q283.7617,480.1362 283.7617,477.0151 Q283.7617,473.8857 285.0815,472.2339 Q286.4014,470.582 288.9082,470.582 Q289.6138,470.582 290.2612,470.7314 Q290.9087,470.8809 291.4731,471.1797 L291.4731,473.9023 Q290.8423,473.3213 290.2488,473.0515 Q289.6553,472.7817 289.0244,472.7817 Q287.6797,472.7817 286.9949,473.8484 Q286.3101,474.915 286.3101,477.0151 Q286.3101,479.1069 286.9949,480.1736 Q287.6797,481.2402 289.0244,481.2402 Q289.6553,481.2402 290.2488,480.9705 Q290.8423,480.7007 291.4731,480.1196 Z "/><text fill="#000000" font-family="sans-serif" font-size="12" lengthAdjust="spacingAndGlyphs" textLength="50" x="302.5" y="481.7344">ArrayList</text><line style="stroke: #A80036; stroke-width: 1.5;" x1="274.5" x2="354.5" y1="493.1992" y2="493.1992"/><line style="stroke: #A80036; stroke-width: 1.5;" x1="274.5" x2="354.5" y1="501.1992" y2="501.1992"/><!--link Iterable to Collection--><path d="M137.5,97.4903 C137.5,111.0163 137.5,125.3827 137.5,137.0428 " fill="none" id="Iterable-Collection" style="stroke: #A80036; stroke-width: 1.0;"/><polygon fill="none" points="130.5001,97.4365,137.5,77.4365,144.5001,97.4365,130.5001,97.4365" style="stroke: #A80036; stroke-width: 1.0;"/><!--link Collection to List--><path d="M162.321,203.0846 C170.7428,217.2964 179.8641,232.6887 187.1851,245.0428 " fill="none" id="Collection-List" style="stroke: #A80036; stroke-width: 1.0;"/><polygon fill="none" points="156.0369,206.211,151.8628,185.4365,168.081,199.0737,156.0369,206.211" style="stroke: #A80036; stroke-width: 1.0;"/><!--link Collection to AbstractCollection--><path d="M112.679,203.0846 C104.2572,217.2964 95.1359,232.6887 87.8149,245.0428 " fill="none" id="Collection-AbstractCollection" style="stroke: #A80036; stroke-width: 1.0; stroke-dasharray: 7.0,7.0;"/><polygon fill="none" points="106.919,199.0737,123.1372,185.4365,118.9631,206.211,106.919,199.0737" style="stroke: #A80036; stroke-width: 1.0;"/><!--link AbstractCollection to AbstractList--><path d="M83.6408,313.0076 C86.8043,326.6739 90.177,341.2439 92.9082,353.0428 " fill="none" id="AbstractCollection-AbstractList" style="stroke: #A80036; stroke-width: 1.0;"/><polygon fill="none" points="76.8013,314.4999,79.1105,293.4365,90.4406,311.3426,76.8013,314.4999" style="stroke: #A80036; stroke-width: 1.0;"/><!--link List to AbstractList--><path d="M164.2784,308.2277 C149.9923,323.2073 134.1145,339.8558 121.5381,353.0428 " fill="none" id="List-AbstractList" style="stroke: #A80036; stroke-width: 1.0; stroke-dasharray: 7.0,7.0;"/><polygon fill="none" points="159.516,303.0786,178.3848,293.4365,169.6472,312.7408,159.516,303.0786" style="stroke: #A80036; stroke-width: 1.0;"/><!--link AbstractList to ArrayList--><path d="M164.9918,410.4451 C200.369,428.1337 242.7546,449.3265 273.3467,464.6226 " fill="none" id="AbstractList-ArrayList" style="stroke: #A80036; stroke-width: 1.0;"/><polygon fill="none" points="161.4638,416.5074,146.7058,401.3021,167.7248,403.9854,161.4638,416.5074" style="stroke: #A80036; stroke-width: 1.0;"/><!--link List to ArrayList--><path d="M208.1022,313.3172 C213.3784,339.9635 222.4559,373.9274 237.5,401.1992 C250.018,423.8916 269.8875,445.3557 286.3068,460.9064 " fill="none" id="List-ArrayList" style="stroke: #A80036; stroke-width: 1.0; stroke-dasharray: 7.0,7.0;"/><polygon fill="none" points="201.1652,314.2867,204.5804,293.3741,214.9519,311.8521,201.1652,314.2867" style="stroke: #A80036; stroke-width: 1.0;"/><!--link RandomAccess to ArrayList--><path d="M314.5,421.4903 C314.5,435.0163 314.5,449.3827 314.5,461.0428 " fill="none" id="RandomAccess-ArrayList" style="stroke: #A80036; stroke-width: 1.0; stroke-dasharray: 7.0,7.0;"/><polygon fill="none" points="307.5001,421.4365,314.5,401.4365,321.5001,421.4365,307.5001,421.4365" style="stroke: #A80036; stroke-width: 1.0;"/><!--link Cloneable to ArrayList--><path d="M406.2942,413.8771 C386.2574,429.4452 363.4556,447.1618 345.5902,461.0428 " fill="none" id="Cloneable-ArrayList" style="stroke: #A80036; stroke-width: 1.0; stroke-dasharray: 7.0,7.0;"/><polygon fill="none" points="402.2177,408.1799,422.3057,401.4365,410.8073,419.2351,402.2177,408.1799" style="stroke: #A80036; stroke-width: 1.0;"/><!--link Serializable to ArrayList--><path d="M514.7232,404.5123 C464.6923,424.674 398.2088,451.4658 355.8747,468.5258 " fill="none" id="Serializable-ArrayList" style="stroke: #A80036; stroke-width: 1.0; stroke-dasharray: 7.0,7.0;"/><polygon fill="none" points="512.1778,397.991,533.3447,397.0081,517.4107,410.9763,512.1778,397.991" style="stroke: #A80036; stroke-width: 1.0;"/><!--
@startuml
title ArrayList继承关系

interface Iterable
interface Collection extends Iterable
interface List extends Collection
interface RandomAccess
interface Cloneable
interface Serializable

abstract class AbstractCollection implements Collection
abstract class AbstractList extends AbstractCollection implements List

class ArrayList extends AbstractList implements List, RandomAccess, Cloneable, Serializable

@enduml

PlantUML version 1.2019.06(Sat May 25 01:10:25 CST 2019)
(GPL source distribution)
Java Runtime: Java(TM) SE Runtime Environment
JVM: Java HotSpot(TM) 64-Bit Server VM
Java Version: 1.8.0_181-b13
Operating System: Mac OS X
OS Version: 10.14.4
Default Encoding: UTF-8
Language: zh
Country: CN
--></g></svg>