<?xml version="1.0" encoding="UTF-8" standalone="no"?><svg xmlns="http://www.w3.org/2000/svg" xmlns:xlink="http://www.w3.org/1999/xlink" contentScriptType="application/ecmascript" contentStyleType="text/css" height="520px" preserveAspectRatio="none" style="width:298px;height:520px;" version="1.1" viewBox="0 0 298 520" width="298px" zoomAndPan="magnify"><defs><filter height="300%" id="fj5uz7mldgenn" width="300%" x="-1" y="-1"><feGaussianBlur result="blurOut" stdDeviation="2.0"/><feColorMatrix in="blurOut" result="blurOut2" type="matrix" values="0 0 0 0 0 0 0 0 0 0 0 0 0 0 0 0 0 0 .4 0"/><feOffset dx="4.0" dy="4.0" in="blurOut2" result="blurOut3"/><feBlend in="SourceGraphic" in2="blurOut3" mode="normal"/></filter></defs><g><text fill="#000000" font-family="sans-serif" font-size="18" lengthAdjust="spacingAndGlyphs" textLength="143" x="81.5" y="17.4023">Java集合核心接口</text><!--class Iterable--><rect fill="#FEFECE" filter="url(#fj5uz7mldgenn)" height="48" id="Iterable" style="stroke: #A80036; stroke-width: 1.5;" width="76" x="88.5" y="29.1992"/><ellipse cx="103.5" cy="45.1992" fill="#B4A7E5" rx="11" ry="11" style="stroke: #A80036; stroke-width: 1.0;"/><path d="M99.4277,40.9644 L99.4277,38.8062 L106.8071,38.8062 L106.8071,40.9644 L104.3418,40.9644 L104.3418,49.041 L106.8071,49.041 L106.8071,51.1992 L99.4277,51.1992 L99.4277,49.041 L101.8931,49.041 L101.8931,40.9644 Z "/><text fill="#000000" font-family="sans-serif" font-size="12" font-style="italic" lengthAdjust="spacingAndGlyphs" textLength="44" x="117.5" y="49.7344">Iterable</text><line style="stroke: #A80036; stroke-width: 1.5;" x1="89.5" x2="163.5" y1="61.1992" y2="61.1992"/><line style="stroke: #A80036; stroke-width: 1.5;" x1="89.5" x2="163.5" y1="69.1992" y2="69.1992"/><!--class Collection--><rect fill="#FEFECE" filter="url(#fj5uz7mldgenn)" height="48" id="Collection" style="stroke: #A80036; stroke-width: 1.5;" width="87" x="83" y="137.1992"/><ellipse cx="98" cy="153.1992" fill="#B4A7E5" rx="11" ry="11" style="stroke: #A80036; stroke-width: 1.0;"/><path d="M93.9277,148.9644 L93.9277,146.8062 L101.3071,146.8062 L101.3071,148.9644 L98.8418,148.9644 L98.8418,157.041 L101.3071,157.041 L101.3071,159.1992 L93.9277,159.1992 L93.9277,157.041 L96.3931,157.041 L96.3931,148.9644 Z "/><text fill="#000000" font-family="sans-serif" font-size="12" font-style="italic" lengthAdjust="spacingAndGlyphs" textLength="55" x="112" y="157.7344">Collection</text><line style="stroke: #A80036; stroke-width: 1.5;" x1="84" x2="169" y1="169.1992" y2="169.1992"/><line style="stroke: #A80036; stroke-width: 1.5;" x1="84" x2="169" y1="177.1992" y2="177.1992"/><!--class List--><rect fill="#FEFECE" filter="url(#fj5uz7mldgenn)" height="48" id="List" style="stroke: #A80036; stroke-width: 1.5;" width="51" x="6" y="245.1992"/><ellipse cx="21" cy="261.1992" fill="#B4A7E5" rx="11" ry="11" style="stroke: #A80036; stroke-width: 1.0;"/><path d="M16.9277,256.9644 L16.9277,254.8062 L24.3071,254.8062 L24.3071,256.9644 L21.8418,256.9644 L21.8418,265.041 L24.3071,265.041 L24.3071,267.1992 L16.9277,267.1992 L16.9277,265.041 L19.3931,265.041 L19.3931,256.9644 Z "/><text fill="#000000" font-family="sans-serif" font-size="12" font-style="italic" lengthAdjust="spacingAndGlyphs" textLength="19" x="35" y="265.7344">List</text><line style="stroke: #A80036; stroke-width: 1.5;" x1="7" x2="56" y1="277.1992" y2="277.1992"/><line style="stroke: #A80036; stroke-width: 1.5;" x1="7" x2="56" y1="285.1992" y2="285.1992"/><!--class Queue--><rect fill="#FEFECE" filter="url(#fj5uz7mldgenn)" height="48" id="Queue" style="stroke: #A80036; stroke-width: 1.5;" width="69" x="92" y="245.1992"/><ellipse cx="107" cy="261.1992" fill="#B4A7E5" rx="11" ry="11" style="stroke: #A80036; stroke-width: 1.0;"/><path d="M102.9277,256.9644 L102.9277,254.8062 L110.3071,254.8062 L110.3071,256.9644 L107.8418,256.9644 L107.8418,265.041 L110.3071,265.041 L110.3071,267.1992 L102.9277,267.1992 L102.9277,265.041 L105.3931,265.041 L105.3931,256.9644 Z "/><text fill="#000000" font-family="sans-serif" font-size="12" font-style="italic" lengthAdjust="spacingAndGlyphs" textLength="37" x="121" y="265.7344">Queue</text><line style="stroke: #A80036; stroke-width: 1.5;" x1="93" x2="160" y1="277.1992" y2="277.1992"/><line style="stroke: #A80036; stroke-width: 1.5;" x1="93" x2="160" y1="285.1992" y2="285.1992"/><!--class Deque--><rect fill="#FEFECE" filter="url(#fj5uz7mldgenn)" height="48" id="Deque" style="stroke: #A80036; stroke-width: 1.5;" width="70" x="86.5" y="353.1992"/><ellipse cx="101.5" cy="369.1992" fill="#B4A7E5" rx="11" ry="11" style="stroke: #A80036; stroke-width: 1.0;"/><path d="M97.4277,364.9644 L97.4277,362.8062 L104.8071,362.8062 L104.8071,364.9644 L102.3418,364.9644 L102.3418,373.041 L104.8071,373.041 L104.8071,375.1992 L97.4277,375.1992 L97.4277,373.041 L99.8931,373.041 L99.8931,364.9644 Z "/><text fill="#000000" font-family="sans-serif" font-size="12" font-style="italic" lengthAdjust="spacingAndGlyphs" textLength="38" x="115.5" y="373.7344">Deque</text><line style="stroke: #A80036; stroke-width: 1.5;" x1="87.5" x2="155.5" y1="385.1992" y2="385.1992"/><line style="stroke: #A80036; stroke-width: 1.5;" x1="87.5" x2="155.5" y1="393.1992" y2="393.1992"/><!--class Set--><rect fill="#FEFECE" filter="url(#fj5uz7mldgenn)" height="48" id="Set" style="stroke: #A80036; stroke-width: 1.5;" width="49" x="201" y="245.1992"/><ellipse cx="216" cy="261.1992" fill="#B4A7E5" rx="11" ry="11" style="stroke: #A80036; stroke-width: 1.0;"/><path d="M211.9277,256.9644 L211.9277,254.8062 L219.3071,254.8062 L219.3071,256.9644 L216.8418,256.9644 L216.8418,265.041 L219.3071,265.041 L219.3071,267.1992 L211.9277,267.1992 L211.9277,265.041 L214.3931,265.041 L214.3931,256.9644 Z "/><text fill="#000000" font-family="sans-serif" font-size="12" font-style="italic" lengthAdjust="spacingAndGlyphs" textLength="17" x="230" y="265.7344">Set</text><line style="stroke: #A80036; stroke-width: 1.5;" x1="202" x2="249" y1="277.1992" y2="277.1992"/><line style="stroke: #A80036; stroke-width: 1.5;" x1="202" x2="249" y1="285.1992" y2="285.1992"/><!--class SortedSet--><rect fill="#FEFECE" filter="url(#fj5uz7mldgenn)" height="48" id="SortedSet" style="stroke: #A80036; stroke-width: 1.5;" width="86" x="191.5" y="353.1992"/><ellipse cx="206.5" cy="369.1992" fill="#B4A7E5" rx="11" ry="11" style="stroke: #A80036; stroke-width: 1.0;"/><path d="M202.4277,364.9644 L202.4277,362.8062 L209.8071,362.8062 L209.8071,364.9644 L207.3418,364.9644 L207.3418,373.041 L209.8071,373.041 L209.8071,375.1992 L202.4277,375.1992 L202.4277,373.041 L204.8931,373.041 L204.8931,364.9644 Z "/><text fill="#000000" font-family="sans-serif" font-size="12" font-style="italic" lengthAdjust="spacingAndGlyphs" textLength="54" x="220.5" y="373.7344">SortedSet</text><line style="stroke: #A80036; stroke-width: 1.5;" x1="192.5" x2="276.5" y1="385.1992" y2="385.1992"/><line style="stroke: #A80036; stroke-width: 1.5;" x1="192.5" x2="276.5" y1="393.1992" y2="393.1992"/><!--class NavigableSet--><rect fill="#FEFECE" filter="url(#fj5uz7mldgenn)" height="48" id="NavigableSet" style="stroke: #A80036; stroke-width: 1.5;" width="106" x="181.5" y="461.1992"/><ellipse cx="196.5" cy="477.1992" fill="#B4A7E5" rx="11" ry="11" style="stroke: #A80036; stroke-width: 1.0;"/><path d="M192.4277,472.9644 L192.4277,470.8062 L199.8071,470.8062 L199.8071,472.9644 L197.3418,472.9644 L197.3418,481.041 L199.8071,481.041 L199.8071,483.1992 L192.4277,483.1992 L192.4277,481.041 L194.8931,481.041 L194.8931,472.9644 Z "/><text fill="#000000" font-family="sans-serif" font-size="12" font-style="italic" lengthAdjust="spacingAndGlyphs" textLength="74" x="210.5" y="481.7344">NavigableSet</text><line style="stroke: #A80036; stroke-width: 1.5;" x1="182.5" x2="286.5" y1="493.1992" y2="493.1992"/><line style="stroke: #A80036; stroke-width: 1.5;" x1="182.5" x2="286.5" y1="501.1992" y2="501.1992"/><!--link Iterable to Collection--><path d="M126.5,97.4903 C126.5,111.0163 126.5,125.3827 126.5,137.0428 " fill="none" id="Iterable-Collection" style="stroke: #A80036; stroke-width: 1.0;"/><polygon fill="none" points="119.5001,97.4365,126.5,77.4365,133.5001,97.4365,119.5001,97.4365" style="stroke: #A80036; stroke-width: 1.0;"/><!--link Collection to List--><path d="M91.7528,200.7013 C78.6849,215.5574 64.2262,231.9946 52.7487,245.0428 " fill="none" id="Collection-List" style="stroke: #A80036; stroke-width: 1.0;"/><polygon fill="none" points="86.7147,195.8303,105.1801,185.4365,97.2267,205.0769,86.7147,195.8303" style="stroke: #A80036; stroke-width: 1.0;"/><!--link Collection to Queue--><path d="M126.5,205.4903 C126.5,219.0163 126.5,233.3827 126.5,245.0428 " fill="none" id="Collection-Queue" style="stroke: #A80036; stroke-width: 1.0;"/><polygon fill="none" points="119.5001,205.4365,126.5,185.4365,133.5001,205.4365,119.5001,205.4365" style="stroke: #A80036; stroke-width: 1.0;"/><!--link Queue to Deque--><path d="M124.4495,313.4903 C123.8233,327.0163 123.1582,341.3827 122.6184,353.0428 " fill="none" id="Queue-Deque" style="stroke: #A80036; stroke-width: 1.0;"/><polygon fill="none" points="117.4604,313.0913,125.3779,293.4365,131.4454,313.7389,117.4604,313.0913" style="stroke: #A80036; stroke-width: 1.0;"/><!--link Collection to Set--><path d="M162.2761,200.2277 C176.0074,215.2073 191.2686,231.8558 203.3566,245.0428 " fill="none" id="Collection-Set" style="stroke: #A80036; stroke-width: 1.0;"/><polygon fill="none" points="157.072,204.9097,148.7175,185.4365,167.3921,195.4495,157.072,204.9097" style="stroke: #A80036; stroke-width: 1.0;"/><!--link Set to SortedSet--><path d="M229.1909,313.4903 C230.3181,327.0163 231.5153,341.3827 232.487,353.0428 " fill="none" id="Set-SortedSet" style="stroke: #A80036; stroke-width: 1.0;"/><polygon fill="none" points="222.205,313.9488,227.5198,293.4365,236.1566,312.7861,222.205,313.9488" style="stroke: #A80036; stroke-width: 1.0;"/><!--link SortedSet to NavigableSet--><path d="M234.5,421.4903 C234.5,435.0163 234.5,449.3827 234.5,461.0428 " fill="none" id="SortedSet-NavigableSet" style="stroke: #A80036; stroke-width: 1.0;"/><polygon fill="none" points="227.5001,421.4365,234.5,401.4365,241.5001,421.4365,227.5001,421.4365" style="stroke: #A80036; stroke-width: 1.0;"/><!--
@startuml
title Java集合核心接口

interface Iterable
interface Collection extends Iterable
interface List extends Collection
interface Queue extends Collection
interface Deque extends Queue
interface Set extends Collection
interface SortedSet extends Set
interface NavigableSet extends SortedSet           


@enduml

PlantUML version 1.2019.06(Sat May 25 01:10:25 CST 2019)
(GPL source distribution)
Java Runtime: Java(TM) SE Runtime Environment
JVM: Java HotSpot(TM) 64-Bit Server VM
Java Version: 1.8.0_181-b13
Operating System: Mac OS X
OS Version: 10.14.4
Default Encoding: UTF-8
Language: zh
Country: CN
--></g></svg>